<?xml version="1.0" encoding="utf-8"?>
<!-- Generator: Adobe Illustrator 18.1.1, SVG Export Plug-In . SVG Version: 6.00 Build 0)  -->
<svg version="1.1" id="Layer_1" xmlns="http://www.w3.org/2000/svg" xmlns:xlink="http://www.w3.org/1999/xlink" x="0px" y="0px"
	 viewBox="0 0 293 32.8" enable-background="new 0 0 293 32.8" xml:space="preserve">
<g>
	<path d="M7.8,21.5c0,2.7,0.9,4.2,4.3,4.2c2.2,0,5.3-0.3,7.9-0.7l1,6c-3,0.6-5.8,1-8.9,1c-7.7,0-11.2-3.8-11.2-9.4V9.8
		c0-5.6,3.5-9.4,11.2-9.4c3.1,0,5.9,0.3,8.9,1l-1,6c-2.7-0.5-5.7-0.7-7.9-0.7c-3.4,0-4.3,1.6-4.3,4.2V21.5z"/>
	<path d="M25.8,31.5V0.9h6.9v30.7H25.8z"/>
	<path d="M45.6,11.4v20.2H39V0.9h8.5L57.6,22V0.9h6.6v30.7h-8.5L45.6,11.4z"/>
	<path d="M70.1,31.5V0.9h19.3V7H77v5.6h11.4v6.1H77v6.7h12.4v6.1H70.1z"/>
	<path d="M101.4,14.5L101,31.5h-6.7l1.3-30.7h6.9l7.4,19.5l7.4-19.5h6.9l1.3,30.7h-6.7l-0.5-17.1l-5.3,13.1h-6.2L101.4,14.5z"/>
	<path d="M156.6,31.5h-7.2l-1.7-6h-10.3l-1.7,6h-7.2L138,0.9h9.2L156.6,31.5z M139.1,19.8h7.1l-3.5-12.9L139.1,19.8z"/>
	<path d="M170.5,7v24.6h-6.9V7h-8.2V0.9h23.4V7H170.5z"/>
	<path d="M205.4,31.5h-7.2l-1.7-6h-10.3l-1.7,6h-7.2l9.4-30.7h9.2L205.4,31.5z M187.9,19.8h7.1l-3.5-12.9L187.9,19.8z"/>
	<path d="M216.1,25.9h13.6v5.7h-21.5v-5.6l13.5-19.4h-12.9V0.9h20.6v5.7L216.1,25.9z"/>
	<path d="M247.7,7v24.6h-6.9V7h-8.2V0.9h23.4V7H247.7z"/>
	<path d="M259.7,31.5V0.9h6.9v30.7H259.7z"/>
	<path d="M279.1,21.5c0,2.7,0.9,4.2,4.3,4.2c2.2,0,5.3-0.3,7.9-0.7l1,6c-3,0.6-5.8,1-8.9,1c-7.7,0-11.2-3.8-11.2-9.4V9.8
		c0-5.6,3.5-9.4,11.2-9.4c3.1,0,5.9,0.3,8.9,1l-1,6c-2.7-0.5-5.7-0.7-7.9-0.7c-3.4,0-4.3,1.6-4.3,4.2V21.5z"/>
</g>
<g>
</g>
<g>
</g>
<g>
</g>
<g>
</g>
<g>
</g>
<g>
</g>
</svg>
