<svg xmlns="http://www.w3.org/2000/svg" width="32" height="32" viewBox="0 0 32 32">
    <path d="M20,13 C19.4477153,13 19,12.5522847 19,12 C19,11.4477153 19.4477153,11 20,11 C20.5522847,11 21,11.4477153 21,12 C21,12.5522847 20.5522847,13 20,13 Z M16,20 C13.794,20 12,18.206 12,16 C12,13.794 13.794,12 16,12 C18.206,12 20,13.794 20,16 C20,18.206 18.206,20 16,20 Z M16,14 C14.897,14 14,14.897 14,16 C14,17.103 14.897,18 16,18 C17.103,18 18,17.103 18,16 C18,14.897 17.103,14 16,14 Z M20,24 L12,24 C9.944,24 8,22.056 8,20 L8,12 C8,9.944 9.944,8 12,8 L20,8 C22.056,8 24,9.944 24,12 L24,20 C24,22.056 22.056,24 20,24 Z M12,10 C11.065,10 10,11.065 10,12 L10,20 C10,20.953 11.047,22 12,22 L20,22 C20.935,22 22,20.935 22,20 L22,12 C22,11.065 20.935,10 20,10 L12,10 Z"></path>
</svg>
