<svg xmlns="http://www.w3.org/2000/svg" width="32" height="32" viewBox="0 0 32 32">
    <path d="M11.875,23 L9,23 L9,14 L12,14 L12,23 L11.875,23 Z M10.5,12 C9.64285714,12 9,11.25 9,10.5 C9,9.64285714 9.64285714,9 10.5,9 C11.3571429,9 12,9.64285714 12,10.5 C11.8928571,11.25 11.25,12 10.5,12 Z M23,22.8734177 L20.0810811,22.8734177 L20.0810811,18.1898734 C20.0810811,17.0506329 20.0810811,15.6582278 18.6216216,15.6582278 C17.1621622,15.6582278 16.9189189,16.9240506 16.9189189,18.1898734 L16.9189189,23 L14,23 L14,13.2531646 L16.7972973,13.2531646 L16.7972973,14.5189873 C17.1621622,13.7594937 18.1351351,13 19.472973,13 C22.3918919,13 22.8783784,15.0253165 22.8783784,17.556962 L22.8783784,22.8734177 L23,22.8734177 Z"></path>
</svg>
